<svg width="1131" height="701.5" xmlns="http://www.w3.org/2000/svg" xmlns:xlink="http://www.w3.org/1999/xlink" fill="#ffffff"><defs><style>
  text {
    fill: #212529;
    font-family: Helvetica Neue, Helvetica, Arial, sans-serif;
    font-size: 16px;
  }

  marker, text {
    fill-opacity: 1;
  }

  * {
    overflow: visible;
  }
</style></defs><svg x="325" y="15" width="160" height="130" class="User" fill="#ffffff"><g><rect width="100%" height="40" stroke="none" fill="white" class="sc-fqkvVR eDtKfR"></rect><rect y="40" width="100%" height="90" stroke="none" fill="white" class="sc-fqkvVR eDtKfR"></rect><svg height="40"><text x="50%" y="50%" dominant-baseline="middle" text-anchor="middle" font-weight="bold" pointer-events="none">User</text></svg><svg x="0" y="40.5" width="159" height="30" class="+ userID : uuid" fill="#ffffff"><g><rect width="100%" height="100%" stroke="none" fill="white" class="sc-fqkvVR eDtKfR"></rect><text x="10" y="50%" dominant-baseline="middle" text-anchor="start" font-weight="normal" pointer-events="none">+ userID : uuid</text></g></svg><svg x="0" y="70.5" width="159" height="30" class="+ name : string" fill="#ffffff"><g><rect width="100%" height="100%" stroke="none" fill="white" class="sc-fqkvVR eDtKfR"></rect><text x="10" y="50%" dominant-baseline="middle" text-anchor="start" font-weight="normal" pointer-events="none">+ name : string</text></g></svg><svg x="0" y="100.5" width="159" height="30" class="+ mail : string" fill="#ffffff"><g><rect width="100%" height="100%" stroke="none" fill="white" class="sc-fqkvVR eDtKfR"></rect><text x="10" y="50%" dominant-baseline="middle" text-anchor="start" font-weight="normal" pointer-events="none">+ mail : string</text></g></svg><rect width="100%" height="100%" stroke="black" fill="none" class="sc-fqkvVR jAaomD"></rect><path d="M 0 40 H 160" stroke="black" fill="white" class="sc-gEvEer fkqzOi"></path></g></svg><svg x="295" y="205" width="210" height="220" class="ChatSession" fill="#ffffff"><g><rect width="100%" height="40" stroke="none" fill="white" class="sc-fqkvVR eDtKfR"></rect><rect y="40" width="100%" height="180" stroke="none" fill="white" class="sc-fqkvVR eDtKfR"></rect><svg height="40"><text x="50%" y="50%" dominant-baseline="middle" text-anchor="middle" font-weight="bold" pointer-events="none">ChatSession</text></svg><svg x="0" y="40.5" width="209" height="30" class="+ chatID : uuid" fill="#ffffff"><g><rect width="100%" height="100%" stroke="none" fill="white" class="sc-fqkvVR eDtKfR"></rect><text x="10" y="50%" dominant-baseline="middle" text-anchor="start" font-weight="normal" pointer-events="none">+ chatID : uuid</text></g></svg><svg x="0" y="70.5" width="209" height="30" class="+ userID : uuid" fill="#ffffff"><g><rect width="100%" height="100%" stroke="none" fill="white" class="sc-fqkvVR eDtKfR"></rect><text x="10" y="50%" dominant-baseline="middle" text-anchor="start" font-weight="normal" pointer-events="none">+ userID : uuid</text></g></svg><svg x="0" y="100.5" width="209" height="30" class="+ queryID : uuid" fill="#ffffff"><g><rect width="100%" height="100%" stroke="none" fill="white" class="sc-fqkvVR eDtKfR"></rect><text x="10" y="50%" dominant-baseline="middle" text-anchor="start" font-weight="normal" pointer-events="none">+ queryID : uuid</text></g></svg><svg x="0" y="130.5" width="209" height="30" class="+ reportID : uuid" fill="#ffffff"><g><rect width="100%" height="100%" stroke="none" fill="white" class="sc-fqkvVR eDtKfR"></rect><text x="10" y="50%" dominant-baseline="middle" text-anchor="start" font-weight="normal" pointer-events="none">+ reportID : uuid</text></g></svg><svg x="0" y="160.5" width="209" height="30" class="+ creationDate: datetime" fill="#ffffff"><g><rect width="100%" height="100%" stroke="none" fill="white" class="sc-fqkvVR eDtKfR"></rect><text x="10" y="50%" dominant-baseline="middle" text-anchor="start" font-weight="normal" pointer-events="none">+ creationDate: datetime</text></g></svg><svg x="0" y="190.5" width="209" height="30" class="+ lastUpdated : datetime" fill="#ffffff"><g><rect width="100%" height="100%" stroke="none" fill="white" class="sc-fqkvVR eDtKfR"></rect><text x="10" y="50%" dominant-baseline="middle" text-anchor="start" font-weight="normal" pointer-events="none">+ lastUpdated : datetime</text></g></svg><rect width="100%" height="100%" stroke="black" fill="none" class="sc-fqkvVR jAaomD"></rect><path d="M 0 40 H 210" stroke="black" fill="white" class="sc-gEvEer fkqzOi"></path></g></svg><svg x="305" y="525" width="200" height="160" class="Query" fill="#ffffff"><g><rect width="100%" height="40" stroke="none" fill="white" class="sc-fqkvVR eDtKfR"></rect><rect y="40" width="100%" height="120" stroke="none" fill="white" class="sc-fqkvVR eDtKfR"></rect><svg height="40"><text x="50%" y="50%" dominant-baseline="middle" text-anchor="middle" font-weight="bold" pointer-events="none">Query</text></svg><svg x="0" y="40.5" width="199" height="30" class="+ queryID: uuid" fill="#ffffff"><g><rect width="100%" height="100%" stroke="none" fill="white" class="sc-fqkvVR eDtKfR"></rect><text x="10" y="50%" dominant-baseline="middle" text-anchor="start" font-weight="normal" pointer-events="none">+ queryID: uuid</text></g></svg><svg x="0" y="70.5" width="199" height="30" class="+ queryText : string" fill="#ffffff"><g><rect width="100%" height="100%" stroke="none" fill="white" class="sc-fqkvVR eDtKfR"></rect><text x="10" y="50%" dominant-baseline="middle" text-anchor="start" font-weight="normal" pointer-events="none">+ queryText : string</text></g></svg><svg x="0" y="100.5" width="199" height="30" class="+ maxArticlesFilter : int" fill="#ffffff"><g><rect width="100%" height="100%" stroke="none" fill="white" class="sc-fqkvVR eDtKfR"></rect><text x="10" y="50%" dominant-baseline="middle" text-anchor="start" font-weight="normal" pointer-events="none">+ maxArticlesFilter : int</text></g></svg><svg x="0" y="130.5" width="199" height="30" class="+ timeRangeFilter : string" fill="#ffffff"><g><rect width="100%" height="100%" stroke="none" fill="white" class="sc-fqkvVR eDtKfR"></rect><text x="10" y="50%" dominant-baseline="middle" text-anchor="start" font-weight="normal" pointer-events="none">+ timeRangeFilter : string</text></g></svg><rect width="100%" height="100%" stroke="black" fill="none" class="sc-fqkvVR jAaomD"></rect><path d="M 0 40 H 200" stroke="black" fill="white" class="sc-gEvEer fkqzOi"></path></g></svg><svg x="935" y="235" width="180" height="160" class="Source" fill="#ffffff"><g><rect width="100%" height="40" stroke="none" fill="white" class="sc-fqkvVR eDtKfR"></rect><rect y="40" width="100%" height="120" stroke="none" fill="white" class="sc-fqkvVR eDtKfR"></rect><svg height="40"><text x="50%" y="50%" dominant-baseline="middle" text-anchor="middle" font-weight="bold" pointer-events="none">Source</text></svg><svg x="0" y="40.5" width="179" height="30" class="+ sourceID : uuid" fill="#ffffff"><g><rect width="100%" height="100%" stroke="none" fill="white" class="sc-fqkvVR eDtKfR"></rect><text x="10" y="50%" dominant-baseline="middle" text-anchor="start" font-weight="normal" pointer-events="none">+ sourceID : uuid</text></g></svg><svg x="0" y="70.5" width="179" height="30" class="+ sourceName : string" fill="#ffffff"><g><rect width="100%" height="100%" stroke="none" fill="white" class="sc-fqkvVR eDtKfR"></rect><text x="10" y="50%" dominant-baseline="middle" text-anchor="start" font-weight="normal" pointer-events="none">+ sourceName : string</text></g></svg><svg x="0" y="100.5" width="179" height="30" class="+ sourceType : string" fill="#ffffff"><g><rect width="100%" height="100%" stroke="none" fill="white" class="sc-fqkvVR eDtKfR"></rect><text x="10" y="50%" dominant-baseline="middle" text-anchor="start" font-weight="normal" pointer-events="none">+ sourceType : string</text></g></svg><svg x="0" y="130.5" width="179" height="30" class="+ sourceURL : string" fill="#ffffff"><g><rect width="100%" height="100%" stroke="none" fill="white" class="sc-fqkvVR eDtKfR"></rect><text x="10" y="50%" dominant-baseline="middle" text-anchor="start" font-weight="normal" pointer-events="none">+ sourceURL : string</text></g></svg><rect width="100%" height="100%" stroke="black" fill="none" class="sc-fqkvVR jAaomD"></rect><path d="M 0 40 H 180" stroke="black" fill="white" class="sc-gEvEer fkqzOi"></path></g></svg><svg x="595" y="195" width="280" height="250" class="Article" fill="#ffffff"><g><rect width="100%" height="40" stroke="none" fill="white" class="sc-fqkvVR eDtKfR"></rect><rect y="40" width="100%" height="210" stroke="none" fill="white" class="sc-fqkvVR eDtKfR"></rect><svg height="40"><text x="50%" y="50%" dominant-baseline="middle" text-anchor="middle" font-weight="bold" pointer-events="none">Article</text></svg><svg x="0" y="40.5" width="279" height="30" class="+ articleID : uuid" fill="#ffffff"><g><rect width="100%" height="100%" stroke="none" fill="white" class="sc-fqkvVR eDtKfR"></rect><text x="10" y="50%" dominant-baseline="middle" text-anchor="start" font-weight="normal" pointer-events="none">+ articleID : uuid</text></g></svg><svg x="0" y="70.5" width="279" height="30" class="+ chatID : uuid" fill="#ffffff"><g><rect width="100%" height="100%" stroke="none" fill="white" class="sc-fqkvVR eDtKfR"></rect><text x="10" y="50%" dominant-baseline="middle" text-anchor="start" font-weight="normal" pointer-events="none">+ chatID : uuid</text></g></svg><svg x="0" y="100.5" width="279" height="30" class="+ sourceID : uuid" fill="#ffffff"><g><rect width="100%" height="100%" stroke="none" fill="white" class="sc-fqkvVR eDtKfR"></rect><text x="10" y="50%" dominant-baseline="middle" text-anchor="start" font-weight="normal" pointer-events="none">+ sourceID : uuid</text></g></svg><svg x="0" y="130.5" width="279" height="30" class="+ title : string" fill="#ffffff"><g><rect width="100%" height="100%" stroke="none" fill="white" class="sc-fqkvVR eDtKfR"></rect><text x="10" y="50%" dominant-baseline="middle" text-anchor="start" font-weight="normal" pointer-events="none">+ title : string</text></g></svg><svg x="0" y="160.5" width="279" height="30" class="+ publicationDate : datetime" fill="#ffffff"><g><rect width="100%" height="100%" stroke="none" fill="white" class="sc-fqkvVR eDtKfR"></rect><text x="10" y="50%" dominant-baseline="middle" text-anchor="start" font-weight="normal" pointer-events="none">+ publicationDate : datetime</text></g></svg><svg x="0" y="190.5" width="279" height="30" class="+ summary : string" fill="#ffffff"><g><rect width="100%" height="100%" stroke="none" fill="white" class="sc-fqkvVR eDtKfR"></rect><text x="10" y="50%" dominant-baseline="middle" text-anchor="start" font-weight="normal" pointer-events="none">+ summary : string</text></g></svg><svg x="0" y="220.5" width="279" height="30" class="+ embedding : vector (conceptual)" fill="#ffffff"><g><rect width="100%" height="100%" stroke="none" fill="white" class="sc-fqkvVR eDtKfR"></rect><text x="10" y="50%" dominant-baseline="middle" text-anchor="start" font-weight="normal" pointer-events="none">+ embedding : vector (conceptual)</text></g></svg><rect width="100%" height="100%" stroke="black" fill="none" class="sc-fqkvVR jAaomD"></rect><path d="M 0 40 H 280" stroke="black" fill="white" class="sc-gEvEer fkqzOi"></path></g></svg><svg x="15" y="245" width="170" height="130" class="Report" fill="#ffffff"><g><rect width="100%" height="40" stroke="none" fill="white" class="sc-fqkvVR eDtKfR"></rect><rect y="40" width="100%" height="90" stroke="none" fill="white" class="sc-fqkvVR eDtKfR"></rect><svg height="40"><text x="50%" y="50%" dominant-baseline="middle" text-anchor="middle" font-weight="bold" pointer-events="none">Report</text></svg><svg x="0" y="40.5" width="169" height="30" class="+ reportID : uuid" fill="#ffffff"><g><rect width="100%" height="100%" stroke="none" fill="white" class="sc-fqkvVR eDtKfR"></rect><text x="10" y="50%" dominant-baseline="middle" text-anchor="start" font-weight="normal" pointer-events="none">+ reportID : uuid</text></g></svg><svg x="0" y="70.5" width="169" height="30" class="+ reportText : string" fill="#ffffff"><g><rect width="100%" height="100%" stroke="none" fill="white" class="sc-fqkvVR eDtKfR"></rect><text x="10" y="50%" dominant-baseline="middle" text-anchor="start" font-weight="normal" pointer-events="none">+ reportText : string</text></g></svg><svg x="0" y="100.5" width="169" height="30" class="+ reportOutput : json" fill="#ffffff"><g><rect width="100%" height="100%" stroke="none" fill="white" class="sc-fqkvVR eDtKfR"></rect><text x="10" y="50%" dominant-baseline="middle" text-anchor="start" font-weight="normal" pointer-events="none">+ reportOutput : json</text></g></svg><rect width="100%" height="100%" stroke="black" fill="none" class="sc-fqkvVR jAaomD"></rect><path d="M 0 40 H 170" stroke="black" fill="white" class="sc-gEvEer fkqzOi"></path></g></svg><svg x="400" y="425" width="18.90000057220459" height="109.60000038146973" class="" fill="#ffffff"><g><polyline points="5 0,5 100" stroke-width="1" marker-end="url(#marker-83fc8899-1d7b-417f-b948-019c3d716b56)" stroke="black" fill="none" class="sc-aXZVg eMElBf"></polyline><text x="5" y="8" dx="5" dy="10" text-anchor="start" pointer-events="none">1</text><text x="5" y="92" dx="5" text-anchor="start" pointer-events="none">1</text><text x="5" y="8" dx="-5" dy="10" text-anchor="end" pointer-events="none"></text><text x="5" y="92" dx="-5" text-anchor="end" pointer-events="none"></text></g></svg><svg x="875" y="305" width="60" height="48.60000038146973" class="" fill="#ffffff"><g><polyline points="0 10,60 10" stroke-width="1" marker-end="url(#marker-28bc2c76-e183-4cf1-936d-d174c4297fc4)" stroke="black" fill="none" class="sc-aXZVg eMElBf"></polyline><text x="8" y="10" dy="21" text-anchor="start" pointer-events="none">1</text><text x="52" y="10" dy="21" text-anchor="end" pointer-events="none">1</text><text x="8" y="10" dy="-10" text-anchor="start" pointer-events="none"></text><text x="52" y="10" dy="-10" text-anchor="end" pointer-events="none"></text></g></svg><svg x="185" y="300" width="110" height="48.60000038146973" class="" fill="#ffffff"><g><polyline points="110 10,0 10" stroke-width="1" marker-end="url(#marker-b0add1aa-c748-4233-af3b-8ea86ec4a133)" stroke="black" fill="none" class="sc-aXZVg eMElBf"></polyline><text x="102" y="10" dy="21" text-anchor="end" pointer-events="none">1</text><text x="8" y="10" dy="21" text-anchor="start" pointer-events="none">1</text><text x="102" y="10" dy="-10" text-anchor="end" pointer-events="none"></text><text x="8" y="10" dy="-10" text-anchor="start" pointer-events="none"></text></g></svg><svg x="400" y="145" width="34.18906211853027" height="69.60000038146973" class="" fill="#ffffff"><g><polyline points="5 0,5 60" stroke-width="1" marker-end="url(#marker-04c1c9a0-97f9-43b8-ba92-5f26e7db12ea)" stroke="black" fill="none" class="sc-aXZVg eMElBf"></polyline><text x="5" y="8" dx="5" dy="10" text-anchor="start" pointer-events="none">1</text><text x="5" y="52" dx="5" text-anchor="start" pointer-events="none">0..*</text><text x="5" y="8" dx="-5" dy="10" text-anchor="end" pointer-events="none"></text><text x="5" y="52" dx="-5" text-anchor="end" pointer-events="none"></text></g></svg><svg x="505" y="305" width="90" height="48.60000038146973" class="" fill="#ffffff"><g><polyline points="0 10,90 10" stroke-width="1" marker-end="url(#marker-062d662d-27ab-48ae-808b-ed4bcec0e7ac)" stroke="black" fill="none" class="sc-aXZVg eMElBf"></polyline><text x="8" y="10" dy="21" text-anchor="start" pointer-events="none">1..*</text><text x="82" y="10" dy="21" text-anchor="end" pointer-events="none">1..*</text><text x="8" y="10" dy="-10" text-anchor="start" pointer-events="none"></text><text x="82" y="10" dy="-10" text-anchor="end" pointer-events="none"></text></g></svg></svg>